<svg width="168" height="130" viewBox="0 0 168 130" fill="none" xmlns="http://www.w3.org/2000/svg">
<path d="M142.219 11.5885C131.327 6.58896 119.833 3.02376 108.023 0.982144C107.916 0.962183 107.805 0.976552 107.707 1.02321C107.608 1.06986 107.526 1.14642 107.474 1.24202C105.997 3.86866 104.361 7.29494 103.216 9.98819C90.303 8.05488 77.4562 8.05488 64.8083 9.98819C63.6625 7.23522 61.9674 3.86866 60.4839 1.24202C60.4291 1.14844 60.3473 1.07358 60.2493 1.02722C60.1512 0.980858 60.0414 0.965148 59.9343 0.982144C47.9355 3.04868 36.4531 6.66855 25.7385 11.5885C25.6452 11.628 25.5666 11.6955 25.5134 11.7817C3.73374 44.3202 -2.23289 76.0591 0.693987 107.404C0.707112 107.557 0.793409 107.704 0.912519 107.797C15.2821 118.35 29.2018 124.756 42.8626 129.003C42.9689 129.035 43.0822 129.033 43.1876 128.999C43.2929 128.964 43.3852 128.898 43.452 128.81C46.6833 124.397 49.5639 119.744 52.0337 114.85C52.1794 114.564 52.0403 114.224 51.7424 114.11C47.1732 112.377 42.8226 110.264 38.6374 107.864C38.3063 107.671 38.2797 107.198 38.5846 106.971C39.4677 106.311 40.3355 105.631 41.1872 104.931C41.2619 104.869 41.3524 104.83 41.4483 104.817C41.5442 104.804 41.6419 104.818 41.7303 104.857C69.2245 117.41 98.9904 117.41 126.16 104.857C126.249 104.815 126.347 104.799 126.445 104.811C126.542 104.823 126.634 104.862 126.71 104.924C127.562 105.628 128.432 106.31 129.319 106.97C129.623 107.197 129.603 107.671 129.273 107.864C125.087 110.31 120.737 112.377 116.161 114.104C116.091 114.131 116.027 114.172 115.974 114.225C115.92 114.279 115.879 114.343 115.852 114.413C115.825 114.484 115.813 114.559 115.818 114.634C115.822 114.71 115.842 114.783 115.877 114.85C118.4 119.736 121.28 124.39 124.452 128.803C124.584 128.99 124.823 129.07 125.041 129.003C138.768 124.756 152.688 118.35 167.058 107.797C167.119 107.752 167.171 107.694 167.209 107.627C167.246 107.561 167.269 107.487 167.276 107.41C170.779 71.172 161.409 39.6933 142.437 11.788C142.391 11.6976 142.313 11.6269 142.219 11.5885ZM56.1402 88.3182C47.8626 88.3182 41.0419 80.7188 41.0419 71.3856C41.0419 62.0524 47.73 54.4531 56.1402 54.4531C64.616 54.4531 71.3708 62.1194 71.2382 71.3856C71.2382 80.7188 64.5497 88.3182 56.1402 88.3182ZM111.963 88.3182C103.686 88.3182 96.8651 80.7188 96.8651 71.3856C96.8651 62.0524 103.553 54.4531 111.963 54.4531C120.439 54.4531 127.194 62.1194 127.061 71.3856C127.061 80.7188 120.44 88.3182 111.963 88.3182Z" fill="white" fill-opacity="0.7"/>
</svg>
