<svg width="97" height="97" viewBox="0 0 97 97" fill="none" xmlns="http://www.w3.org/2000/svg">
<path d="M68.5771 0.583374H28.4229C10.9813 0.583374 0.583344 10.9813 0.583344 28.423V68.5771C0.583344 86.0188 10.9813 96.4167 28.4229 96.4167H68.5771C86.0188 96.4167 96.4167 86.0188 96.4167 68.5771V28.423C96.4167 10.9813 86.0188 0.583374 68.5771 0.583374ZM38.7729 62.3959L27.9917 73.1771C27.2729 73.8959 26.3625 74.2313 25.4521 74.2313C24.5417 74.2313 23.5833 73.8959 22.9125 73.1771L19.3188 69.5834C17.8813 68.1938 17.8813 65.8938 19.3188 64.5042C20.7083 63.1146 22.9604 63.1146 24.3979 64.5042L25.4521 65.5584L33.6938 57.3167C35.0833 55.9271 37.3354 55.9271 38.7729 57.3167C40.1625 58.7063 40.1625 61.0063 38.7729 62.3959ZM38.7729 28.8542L27.9917 39.6355C27.2729 40.3542 26.3625 40.6896 25.4521 40.6896C24.5417 40.6896 23.5833 40.3542 22.9125 39.6355L19.3188 36.0417C17.8813 34.6521 17.8813 32.3521 19.3188 30.9625C20.7083 29.573 22.9604 29.573 24.3979 30.9625L25.4521 32.0167L33.6938 23.775C35.0833 22.3855 37.3354 22.3855 38.7729 23.775C40.1625 25.1646 40.1625 27.4646 38.7729 28.8542ZM75.1417 70.6375H49.9854C48.0208 70.6375 46.3917 69.0084 46.3917 67.0438C46.3917 65.0792 48.0208 63.45 49.9854 63.45H75.1417C76.0948 63.45 77.0089 63.8287 77.6828 64.5026C78.3568 65.1766 78.7354 66.0907 78.7354 67.0438C78.7354 67.9969 78.3568 68.911 77.6828 69.585C77.0089 70.2589 76.0948 70.6375 75.1417 70.6375ZM75.1417 37.0959H49.9854C48.0208 37.0959 46.3917 35.4667 46.3917 33.5021C46.3917 31.5375 48.0208 29.9084 49.9854 29.9084H75.1417C76.0948 29.9084 77.0089 30.287 77.6828 30.961C78.3568 31.6349 78.7354 32.549 78.7354 33.5021C78.7354 34.4552 78.3568 35.3693 77.6828 36.0433C77.0089 36.7173 76.0948 37.0959 75.1417 37.0959Z" fill="white" fill-opacity="0.69"/>
</svg>
