<svg width="126" height="127" viewBox="0 0 126 127" fill="none" xmlns="http://www.w3.org/2000/svg">
<path d="M123.83 78.4591L112 69.2081C112.15 67.7815 112.279 66.1138 112.279 64.3493C112.279 62.5849 112.155 60.9172 112 59.4906L123.841 50.2343C126.04 48.4967 126.641 45.413 125.241 42.8443L112.938 21.5588C111.624 19.1563 108.744 17.9228 105.822 19.0007L91.8622 24.6048C89.1862 22.6742 86.3812 21.044 83.48 19.7408L81.3563 4.93394C81.0076 2.1237 78.5621 0 75.6717 0H51.0025C48.1118 0 45.6719 2.1237 45.3285 4.89095L43.1995 19.7516C40.3893 21.0173 37.6276 22.6262 34.8334 24.6156L20.8363 18.9954C18.2136 17.9818 15.0763 19.1186 13.7731 21.5105L1.45475 42.8227C0.0014891 45.279 0.602048 48.4698 2.84918 50.2504L14.6796 59.5014C14.4918 61.3086 14.4008 62.88 14.4008 64.3549C14.4008 65.8297 14.4921 67.4009 14.6796 69.2136L2.83837 78.4699C0.639505 80.2127 0.0442246 83.2965 1.44394 85.8599L13.7465 107.145C15.0605 109.542 17.9134 110.786 20.8629 109.703L34.8226 104.099C37.4933 106.024 40.298 107.655 43.1995 108.963L45.3232 123.765C45.6716 126.586 48.1118 128.709 51.0078 128.709H75.677C78.5677 128.709 81.0131 126.586 81.3563 123.818L83.4853 108.963C86.2955 107.692 89.0519 106.089 91.8514 104.094L105.848 109.714C106.518 109.976 107.231 110.111 107.951 110.111C110.032 110.111 111.946 108.974 112.911 107.204L125.267 85.8061C126.641 83.2962 126.04 80.2127 123.83 78.4591ZM63.337 85.8061C51.5066 85.8061 41.8855 76.1851 41.8855 64.3546C41.8855 52.5242 51.5066 42.9032 63.337 42.9032C75.1674 42.9032 84.7884 52.5242 84.7884 64.3546C84.7884 76.1851 75.1674 85.8061 63.337 85.8061Z" fill="white" fill-opacity="0.8"/>
</svg>
