<svg width="34" height="34" viewBox="0 0 34 34" fill="none" xmlns="http://www.w3.org/2000/svg">
<g id="Iconly/Bulk/3 User">
<g id="3 User">
<path id="Fill 1" d="M16.9278 20.5981C12.0404 20.5981 7.9165 21.3968 7.9165 24.4791C7.9165 27.5627 12.067 28.3332 16.9278 28.3332C21.8153 28.3332 25.9392 27.5346 25.9392 24.4523C25.9392 21.3687 21.7887 20.5981 16.9278 20.5981" fill="white" fill-opacity="0.9"/>
<path id="Fill 3" opacity="0.4" d="M16.9278 17.6616C20.2373 17.6616 22.891 14.9926 22.891 11.6641C22.891 8.3343 20.2373 5.66663 16.9278 5.66663C13.6183 5.66663 10.9647 8.3343 10.9647 11.6641C10.9647 14.9926 13.6183 17.6616 16.9278 17.6616" fill="white" fill-opacity="0.58"/>
<path id="Fill 6" opacity="0.4" d="M29.8746 13.0606C30.7309 9.6925 28.2205 6.6676 25.0239 6.6676C24.6764 6.6676 24.344 6.70588 24.0193 6.77094C23.9762 6.78115 23.928 6.80284 23.9026 6.84111C23.8734 6.88959 23.895 6.95465 23.9267 6.99676C24.8869 8.35164 25.4387 10.0012 25.4387 11.772C25.4387 13.4688 24.9326 15.0508 24.0447 16.3636C23.9533 16.4988 24.0345 16.6813 24.1956 16.7093C24.4189 16.7489 24.6472 16.7693 24.8806 16.7757C27.2083 16.8369 29.2975 15.3302 29.8746 13.0606" fill="white" fill-opacity="0.58"/>
<path id="Fill 8" d="M32.3132 20.9906C31.887 20.0772 30.8582 19.4508 29.2942 19.1433C28.5559 18.9621 26.558 18.707 24.6997 18.7414C24.6718 18.7453 24.6566 18.7644 24.654 18.7772C24.6502 18.795 24.6579 18.8256 24.6946 18.8448C25.5534 19.2722 28.873 21.131 28.4557 25.0515C28.4379 25.2212 28.5737 25.3679 28.7424 25.3424C29.5593 25.225 31.6612 24.7708 32.3132 23.356C32.6734 22.6083 32.6734 21.7395 32.3132 20.9906" fill="white" fill-opacity="0.9"/>
<path id="Fill 11" opacity="0.4" d="M9.98018 6.77131C9.65671 6.70497 9.3231 6.66797 8.97554 6.66797C5.77895 6.66797 3.26861 9.69286 4.12611 13.0609C4.702 15.3306 6.7912 16.8373 9.11888 16.776C9.35228 16.7697 9.58187 16.748 9.80386 16.7097C9.96496 16.6816 10.0461 16.4992 9.95481 16.364C9.06687 15.0499 8.56074 13.4692 8.56074 11.7724C8.56074 10.0003 9.1138 8.35073 10.074 6.99712C10.1045 6.95502 10.1273 6.88996 10.0969 6.84148C10.0715 6.80193 10.0246 6.78151 9.98018 6.77131" fill="white" fill-opacity="0.58"/>
<path id="Fill 13" d="M4.70556 19.1429C3.14151 19.4503 2.11404 20.0767 1.68783 20.9902C1.32631 21.7391 1.32631 22.6079 1.68783 23.3568C2.33983 24.7704 4.44171 25.2258 5.25862 25.3419C5.42733 25.3674 5.56179 25.222 5.54403 25.051C5.12669 21.1318 8.44633 19.273 9.30636 18.8456C9.34188 18.8252 9.34949 18.7959 9.34568 18.7767C9.34315 18.764 9.32919 18.7448 9.30129 18.7423C7.44168 18.7065 5.44509 18.9617 4.70556 19.1429" fill="white" fill-opacity="0.9"/>
</g>
</g>
</svg>
